<svg xmlns="http://www.w3.org/2000/svg" viewBox="0 0 320 320" fill="none">
  <rect width="320" height="320" rx="48" fill="url(#paint0_linear)" />
  <rect x="74" y="62" width="172" height="196" rx="28" fill="#F0F7FF" stroke="#9AC7F0" stroke-width="4" />
  <path d="M118 114h84M118 154h84M118 194h84" stroke="#7DB5E6" stroke-width="10" stroke-linecap="round" stroke-dasharray="16 14" />
  <path d="M102 94c0 10 8 18 18 18s18-8 18-18-8-18-18-18-18 8-18 18zm64 0c0 10 8 18 18 18s18-8 18-18-8-18-18-18-18 8-18 18z" stroke="#7DB5E6" stroke-width="6" />
  <path d="M102 234c0-10 8-18 18-18s18 8 18 18-8 18-18 18-18-8-18-18zm64 0c0-10 8-18 18-18s18 8 18 18-8 18-18 18-18-8-18-18z" stroke="#7DB5E6" stroke-width="6" />
  <defs>
    <linearGradient id="paint0_linear" x1="48" y1="44" x2="272" y2="276" gradientUnits="userSpaceOnUse">
      <stop stop-color="#E8F3FF" />
      <stop offset="1" stop-color="#D8EBFF" />
    </linearGradient>
  </defs>
</svg>
